<svg aria-hidden="true" style="position: absolute; width: 0; height: 0; overflow: hidden;" version="1.1" xmlns="http://www.w3.org/2000/svg" xmlns:xlink="http://www.w3.org/1999/xlink">
    <defs>
        <symbol id="icon-close-btn" viewBox="0 0 32 32">
            <path stroke-linejoin="round" stroke-linecap="round" stroke-miterlimit="4" stroke-width="2" d="M24 8l-16 16"></path>
            <path stroke-linejoin="round" stroke-linecap="round" stroke-miterlimit="4" stroke-width="2" d="M8 8l16 16"></path>
        </symbol>
        <symbol id="icon-user" viewBox="0 0 32 32">
            <path stroke-linejoin="round" stroke-linecap="round" stroke-miterlimit="4" stroke-width="2.6667" d="M26.667 28c0-1.861 0-2.791-0.23-3.548-0.517-1.705-1.851-3.039-3.556-3.556-0.757-0.23-1.687-0.23-3.548-0.23h-6.667c-1.861 0-2.791 0-3.548 0.23-1.705 0.517-3.038 1.851-3.556 3.556-0.23 0.757-0.23 1.687-0.23 3.548"></path>
            <path stroke-linejoin="round" stroke-linecap="round" stroke-miterlimit="4" stroke-width="2.6667" d="M16 16c3.314 0 6-2.686 6-6s-2.686-6-6-6c-3.314 0-6 2.686-6 6s2.686 6 6 6z"></path>
        </symbol>
        <symbol id="icon-phone" viewBox="0 0 32 32">
            <path d="M29.334 22.559v4c0.001 0.371-0.075 0.739-0.223 1.079s-0.367 0.646-0.641 0.897c-0.274 0.251-0.597 0.442-0.948 0.561s-0.725 0.163-1.094 0.13c-4.103-0.446-8.044-1.848-11.507-4.093-3.222-2.047-5.953-4.778-8-8-2.253-3.478-3.656-7.439-4.093-11.56-0.033-0.369 0.010-0.74 0.129-1.091s0.308-0.673 0.558-0.947c0.25-0.273 0.553-0.492 0.892-0.641s0.705-0.227 1.075-0.227h4c0.647-0.006 1.274 0.223 1.765 0.645s0.811 1.008 0.902 1.649c0.169 1.28 0.482 2.537 0.933 3.747 0.179 0.477 0.218 0.996 0.112 1.495s-0.353 0.956-0.712 1.319l-1.693 1.693c1.898 3.338 4.662 6.102 8 8l1.693-1.693c0.362-0.358 0.82-0.606 1.319-0.712s1.017-0.068 1.495 0.112c1.21 0.451 2.466 0.765 3.747 0.933 0.648 0.091 1.239 0.418 1.662 0.917s0.648 1.136 0.631 1.79z"></path>
        </symbol>
        <symbol id="icon-email" viewBox="0 0 32 32">
            <path stroke-linejoin="round" stroke-linecap="round" stroke-miterlimit="4" stroke-width="1.3333" d="M29 9v14c0 0.796-0.316 1.559-0.879 2.121s-1.326 0.879-2.121 0.879h-20c-0.796 0-1.559-0.316-2.121-0.879s-0.879-1.326-0.879-2.121v-14M29 9c0-0.796-0.316-1.559-0.879-2.121s-1.326-0.879-2.121-0.879h-20c-0.796 0-1.559 0.316-2.121 0.879s-0.879 1.326-0.879 2.121M29 9v0.324c0 0.512-0.131 1.016-0.381 1.463s-0.61 0.823-1.046 1.092l-10 6.153c-0.473 0.291-1.018 0.446-1.573 0.446s-1.1-0.154-1.573-0.446l-10-6.152c-0.436-0.269-0.796-0.644-1.046-1.092s-0.381-0.951-0.381-1.463v-0.325"></path>
        </symbol>
        <symbol id="icon-logo8" viewBox="0 0 128 32">
            <path d="M12.48 24.32v-16.64h5.952v5.312h3.712v-5.312h5.952v16.64h-5.952v-5.952h-3.712v5.952h-5.952zM34.88 24.32v-16.64h5.952v16.64h-5.952zM57.28 24.32v-16.64h11.072v5.312h-5.12v1.856h4.8v5.312h-4.8v1.856h5.12v5.312h-11.072zM82.88 16c0-1.408-0.384-2.624-1.152-3.648l1.536-1.536-3.776-3.776-1.536 1.536c-1.024-0.768-2.24-1.152-3.648-1.152s-2.624 0.384-3.648 1.152l-1.536-1.536-3.776 3.776 1.536 1.536c-0.768 1.024-1.152 2.24-1.152 3.648s0.384 2.624 1.152 3.648l-1.536 1.536 3.776 3.776 1.536-1.536c1.024 0.768 2.24 1.152 3.648 1.152s2.624-0.384 3.648-1.152l1.536 1.536 3.776-3.776-1.536-1.536c0.768-1.024 1.152-2.24 1.152-3.648zM72.96 16c0-1.856 1.472-3.328 3.328-3.328s3.328 1.472 3.328 3.328-1.472 3.328-3.328 3.328-3.328-1.472-3.328-3.328zM95.68 24.32v-16.64h11.072v5.312h-5.12v1.856h4.8v5.312h-4.8v1.856h5.12v5.312h-11.072z"></path>
        </symbol>
        <symbol id="icon-logo9" viewBox="0 0 64 32">
            <path d="M12.48 24.32v-16.64h5.952v5.312h3.712v-5.312h5.952v16.64h-5.952v-5.952h-3.712v5.952h-5.952zM34.88 24.32v-16.64h5.952v16.64h-5.952zM57.28 24.32v-16.64h11.072v5.312h-5.12v1.856h4.8v5.312h-4.8v1.856h5.12v5.312h-11.072zM82.88 16c0-1.408-0.384-2.624-1.152-3.648l1.536-1.536-3.776-3.776-1.536 1.536c-1.024-0.768-2.24-1.152-3.648-1.152s-2.624 0.384-3.648 1.152l-1.536-1.536-3.776 3.776 1.536 1.536c-0.768 1.024-1.152 2.24-1.152 3.648s0.384 2.624 1.152 3.648l-1.536 1.536 3.776 3.776 1.536-1.536c1.024 0.768 2.24 1.152 3.648 1.152s2.624-0.384 3.648-1.152l1.536 1.536 3.776-3.776-1.536-1.536c0.768-1.024 1.152-2.24 1.152-3.648zM72.96 16c0-1.856 1.472-3.328 3.328-3.328s3.328 1.472 3.328 3.328-1.472 3.328-3.328 3.328-3.328-1.472-3.328-3.328zM95.68 24.32v-16.64h11.072v5.312h-5.12v1.856h4.8v5.312h-4.8v1.856h5.12v5.312h-11.072z"></path>
        </symbol>
    </defs>
</svg>
